<svg width="19" height="19" viewBox="0 0 19 19" fill="none" xmlns="http://www.w3.org/2000/svg">
<rect x="0.0268555" y="0.0537109" width="18" height="18" rx="4" transform="rotate(0.0857081 0.0268555 0.0537109)" fill="#29384B"/>
<path d="M4.40467 6.85881L4.39806 11.2726C4.39764 11.5564 4.54589 11.8133 4.79339 11.9578L8.61391 14.1705C8.85691 14.3105 9.15867 14.3109 9.40209 14.1717L13.2292 11.9705C13.4726 11.8312 13.6262 11.5702 13.6266 11.2865L13.6332 6.87261C13.6336 6.58887 13.4854 6.33192 13.2379 6.18743L9.41735 3.97479C9.17434 3.8348 8.87258 3.83435 8.62916 3.97361L4.80204 6.17481C4.55862 6.31407 4.4096 6.57507 4.40917 6.85882L4.40467 6.85881Z" fill="#213147"/>
<path d="M9.84567 9.92948L9.29846 11.424C9.28488 11.4645 9.28482 11.5095 9.29826 11.5546L10.2312 14.1277L11.3176 13.5033L10.0213 9.92974C9.98991 9.84862 9.87731 9.84845 9.84567 9.92948Z" fill="#12AAFF"/>
<path d="M10.943 7.41611C10.9116 7.335 10.799 7.33483 10.7674 7.41585L10.2202 8.91034C10.2066 8.95085 10.2065 8.99589 10.22 9.04095L11.7495 13.2544L12.8359 12.63L10.943 7.42062L10.943 7.41611Z" fill="#12AAFF"/>
<path d="M9.02061 4.13996C9.04763 4.14 9.07464 4.14905 9.09714 4.16259L13.2282 6.55585C13.2777 6.58295 13.3046 6.63704 13.3045 6.69109L13.2974 11.4652C13.2973 11.5193 13.2657 11.5733 13.2206 11.6002L9.08245 13.9811C9.05991 13.9946 9.03288 14.0036 9.00585 14.0035C8.97883 14.0035 8.95182 13.9944 8.92932 13.9809L4.79829 11.5876C4.74879 11.5605 4.72185 11.5065 4.72193 11.4524L4.72908 6.67375C4.72916 6.61971 4.76077 6.56571 4.80585 6.53875L8.94401 4.15786C8.96655 4.14438 8.99359 4.13541 9.02061 4.13546L9.02061 4.13996ZM9.02165 3.44185C8.87302 3.44163 8.72884 3.47745 8.59361 3.55381L4.45544 5.9347C4.18948 6.08744 4.02693 6.36644 4.02647 6.6727L4.01933 11.4469C4.01887 11.7531 4.18059 12.0326 4.44609 12.1861L8.57712 14.5794C8.70762 14.6562 8.85619 14.6924 9.00482 14.6926C9.15345 14.6929 9.29763 14.657 9.43286 14.5807L13.571 12.1998C13.837 12.0471 13.9995 11.7681 14 11.4618L14.0071 6.68763C14.0076 6.38137 13.8459 6.10188 13.5804 5.94835L9.44485 3.55508C9.31435 3.47832 9.16578 3.44207 9.01715 3.44185L9.02165 3.44185Z" fill="#F2F2F4"/>
<path d="M6.2687 13.2515L6.6531 12.2071L7.41781 12.8433L6.70071 13.4998L6.2687 13.2515Z" fill="#213147"/>
<path d="M8.66612 6.34249L7.6167 6.34092C7.54014 6.34081 7.468 6.39024 7.44087 6.46227L5.1842 12.6203L6.26871 13.2479L8.75601 6.46423C8.77863 6.40121 8.73368 6.33809 8.67063 6.338L8.66612 6.34249Z" fill="white"/>
<path d="M10.5041 6.3452L9.45467 6.34363C9.3781 6.34351 9.30597 6.39295 9.27884 6.46497L6.70108 13.4963L7.78559 14.1239L10.5895 6.46693C10.6121 6.40391 10.5671 6.34079 10.5041 6.34069L10.5041 6.3452Z" fill="white"/>
</svg>
