<svg width="100" height="40" viewBox="0 0 100 40" fill="none" xmlns="http://www.w3.org/2000/svg">
<path d="M20.7451 13.3188C20.7425 13.7636 20.3341 14.0782 19.8926 14.0317C18.7982 13.9164 17.7956 13.9259 16.8582 14.0237C14.8179 14.2366 13.1223 14.8668 11.5591 15.4479L11.5556 15.4491C11.461 15.4843 11.3669 15.5193 11.2733 15.554C9.61337 16.1687 8.08386 16.6976 6.26919 16.7395C5.54529 16.7563 4.76541 16.6953 3.90663 16.5223C3.17008 16.3739 2.58163 15.8109 2.43568 15.0723C2.32004 14.4871 2.2594 13.882 2.2594 13.2628C2.2594 8.14708 6.3976 4 11.5023 4C16.6071 4 20.7453 8.14708 20.7453 13.2628C20.7453 13.2815 20.7452 13.3001 20.7451 13.3188Z" fill="url(#paint0_radial_2277_25937)"/>
<path d="M3.08118 17.9214C2.38709 17.7543 1.75369 18.5017 2.09551 19.1297L11.1682 35.7986C11.3141 36.0668 11.6984 36.0668 11.8443 35.7986L21.8581 17.4006C22.2133 16.748 21.8716 15.9306 21.1442 15.785C19.5619 15.4682 18.2137 15.4341 17.0137 15.5593C15.1726 15.7514 13.6435 16.3191 12.0561 16.9083C11.972 16.9396 11.8877 16.9708 11.8033 17.0021C10.1415 17.6176 8.39745 18.2345 6.30073 18.283C5.30417 18.3061 4.24268 18.201 3.08118 17.9214Z" fill="url(#paint1_linear_2277_25937)"/>
<path d="M11.5021 17.4352C11.5021 17.2419 11.6226 17.0692 11.8035 17.0021C11.888 16.9708 11.9723 16.9396 12.0564 16.9083C13.6437 16.3191 15.1729 15.7514 17.014 15.5593C18.2139 15.4341 19.5622 15.4682 21.1445 15.785C21.8718 15.9306 22.2136 16.748 21.8584 17.4006L11.8446 35.7986C11.7708 35.9342 11.6361 36.0013 11.5021 35.9997V17.4352Z" fill="url(#paint2_linear_2277_25937)"/>
<path fill-rule="evenodd" clip-rule="evenodd" d="M40.2594 12.3664C39.4045 12.1221 38.6107 12 37.8166 12C36.3511 12 35.0077 12.3664 33.7864 12.9771C32.565 13.6489 31.649 14.5649 30.9772 15.7863C30.3053 17.0076 30 18.3511 30 19.9389C30 21.5267 30.3665 22.8702 31.0383 24.0915C31.7098 25.3129 32.687 26.229 33.8472 26.9007C35.0077 27.5725 36.2899 27.9389 37.7558 27.9389C39.0991 27.9389 40.3205 27.6946 41.4199 27.0839C42.519 26.5343 43.3739 25.6793 44.0457 24.519C44.7176 23.3587 45.0229 22.0152 45.0229 20.4274V19.7557C45.0229 19.6704 45.023 19.5719 45.023 19.4663L45.0231 19.3397C45.0232 19.1985 44.9087 19.084 44.7675 19.084H38.4378C38.2965 19.084 38.182 19.1985 38.182 19.3397V21.5763C38.182 21.7175 38.2965 21.832 38.4378 21.832H41.3268C41.431 21.832 41.511 21.9247 41.4922 22.0272C41.4317 22.357 41.3464 22.6565 41.2365 22.9313C40.9923 23.603 40.5647 24.0305 39.954 24.3969C39.4045 24.7022 38.6718 24.8855 37.7558 24.8855C37.0229 24.8855 36.2899 24.6412 35.6792 24.2748C35.0077 23.8473 34.519 23.2977 34.1525 22.5648C33.7864 21.832 33.603 20.9771 33.603 20C33.603 19.0229 33.7864 18.1679 34.1525 17.4351C34.519 16.7023 35.0077 16.0916 35.6792 15.7252C36.3511 15.2977 37.084 15.1145 37.8778 15.1145C38.6107 15.1145 39.3434 15.2977 39.954 15.6031C40.4968 15.8744 40.9916 16.3388 41.3949 16.9104C41.4782 17.0284 41.6407 17.0624 41.76 16.981L44.0319 15.432C44.1428 15.3563 44.177 15.2074 44.1039 15.0948C43.6865 14.4514 43.1279 13.9084 42.519 13.4657C41.7861 12.9771 41.1146 12.6107 40.2594 12.3664ZM59.8192 12.8608L62.5443 12.1431C62.7065 12.1004 62.8652 12.2227 62.8652 12.3904V27.4388C62.8652 27.5801 62.7507 27.6946 62.6094 27.6946H59.8843C59.7431 27.6946 59.6286 27.5801 59.6286 27.4388V13.1081C59.6286 12.992 59.7068 12.8904 59.8192 12.8608ZM91.9667 19.206C92.3942 18.9618 92.8216 18.8396 93.3102 18.8396C93.8598 18.8396 94.2873 19.0228 94.6537 19.206C95.0201 19.3892 95.3254 19.7556 95.5697 20.2442C95.814 20.7327 95.9361 21.2824 95.9361 21.9541C95.9361 22.6259 95.814 23.1755 95.5697 23.664C95.3865 24.1526 95.0812 24.519 94.6537 24.7633C94.2873 25.0075 93.7987 25.1297 93.3102 25.1297C92.8216 25.1297 92.3331 25.0075 91.9667 24.7633C91.6003 24.519 91.2949 24.1526 91.0507 23.664C90.8064 23.1755 90.6842 22.6259 90.6842 21.9541C90.6842 21.2824 90.8064 20.7327 91.0507 20.2442C91.2339 19.8167 91.5392 19.4503 91.9667 19.206ZM96.3636 16.7022C95.5086 16.2137 94.4705 15.9694 93.3102 15.9694C92.2109 15.9694 91.1728 16.2137 90.2568 16.7022C89.3407 17.1908 88.669 17.9236 88.1194 18.8396C87.5697 19.7556 87.3255 20.7938 87.3255 21.9541C87.3255 23.1144 87.6308 24.1526 88.1194 25.0686C88.6079 25.9846 89.3407 26.7175 90.2568 27.206C91.1728 27.6946 92.2109 27.9388 93.3102 27.9388C94.4094 27.9388 95.4476 27.6946 96.3636 27.206C97.2796 26.7175 97.9514 25.9846 98.501 25.0686C99.0506 24.1526 99.2949 23.1144 99.2949 21.9541C99.2949 20.7938 98.9895 19.7556 98.501 18.8396C98.0125 17.9236 97.2796 17.1908 96.3636 16.7022ZM73.2492 26.5305C73.2734 26.4918 73.3435 26.5096 73.3435 26.5552V27.4389C73.3435 27.5802 73.458 27.6947 73.5992 27.6947H76.3243C76.4655 27.6947 76.58 27.5802 76.58 27.4389V16.5917C76.58 16.4504 76.4655 16.3359 76.3243 16.3359H73.5992C73.458 16.3359 73.3435 16.4504 73.3435 16.5917V17.5746C73.3435 17.6586 73.2323 17.6938 73.1811 17.6272C73.0098 17.4043 72.819 17.1972 72.6105 17.0077C71.9389 16.3359 71.0229 16.0306 69.9236 16.0306C68.9466 16.0306 68.0915 16.2749 67.2976 16.8245C66.5648 17.3131 65.9541 18.0459 65.5267 18.9619C65.0993 19.8779 64.916 20.9161 64.916 22.0153C64.916 23.1146 65.0993 24.1527 65.5267 25.0688C65.9541 25.9848 66.5039 26.6565 67.2976 27.2062C68.0306 27.7557 68.9466 28 69.9236 28C71.084 28 71.9389 27.6336 72.6717 27.1451C72.9513 26.9586 73.1441 26.6988 73.2492 26.5305ZM72.1221 24.7023C71.6947 24.9466 71.2671 25.0688 70.7785 25.0688C70.2901 25.0688 69.8626 24.9466 69.435 24.7023C69.0687 24.458 68.7634 24.0916 68.519 23.6031C68.3359 23.1145 68.2137 22.5649 68.2137 21.9542C68.2137 21.3436 68.2748 20.855 68.519 20.3664C68.7634 19.939 69.0687 19.5726 69.435 19.3283C69.8626 19.084 70.2901 18.9619 70.7785 18.9619C71.2671 18.9619 71.7557 19.084 72.1221 19.3283C72.4884 19.5726 72.7938 19.8779 73.0381 20.3664C73.2214 20.7939 73.3435 21.3436 73.3435 21.9542C73.3435 22.5649 73.2824 23.1145 73.0381 23.6031C72.7938 24.0916 72.4884 24.458 72.1221 24.7023ZM83.6867 18.8397C83.6396 18.8397 83.6014 18.8778 83.6014 18.9249V23.2976C83.6014 24.3358 84.0289 24.8854 84.8839 24.8854H85.8495C85.9908 24.8854 86.1053 24.9999 86.1053 25.1412V27.4389C86.1053 27.5801 85.9908 27.6946 85.8495 27.6946H84.4565C83.174 27.6946 82.1358 27.3282 81.464 26.5953C80.7312 25.8625 80.3648 24.8244 80.3648 23.4809V18.9249C80.3648 18.8778 80.3266 18.8397 80.2795 18.8397H78.39C78.2147 18.8397 78.0914 18.6674 78.1479 18.5015L78.8262 16.5092C78.8615 16.4055 78.9588 16.3358 79.0683 16.3358H80.2795C80.3266 16.3358 80.3648 16.2977 80.3648 16.2506V13.1934C80.3648 13.0773 80.443 12.9757 80.5554 12.9461L83.3875 12.2002C83.4956 12.1717 83.6014 12.2533 83.6014 12.3651V16.2506C83.6014 16.2977 83.6396 16.3358 83.6867 16.3358H85.9185C86.0938 16.3358 86.2171 16.5081 86.1606 16.674L85.4823 18.6664C85.447 18.77 85.3497 18.8397 85.2402 18.8397H83.6867ZM52.2031 15.9694C53.3022 15.9694 54.2182 16.2137 55.0122 16.7022C55.8061 17.1908 56.4777 17.9236 56.9052 18.8396C57.3938 19.7556 57.577 20.7938 57.577 21.9541V22.4923C57.577 22.6335 57.4625 22.748 57.3213 22.748H50.0737C49.9703 22.748 49.8905 22.8394 49.9082 22.9413C49.9616 23.2469 50.0368 23.5154 50.1265 23.7251C50.3711 24.2136 50.6764 24.5801 51.0426 24.7633C51.409 24.9465 51.8978 25.1297 52.5084 25.1297C53.058 25.1297 53.6076 25.0075 53.974 24.8243C54.3273 24.6729 54.6388 24.3964 54.9087 24.0637C55.0015 23.9492 55.1698 23.9256 55.2843 24.0184L57.1415 25.5242C57.2483 25.6108 57.268 25.7668 57.181 25.8732C56.6604 26.5098 56.0343 26.9948 55.2564 27.3281C54.4015 27.6945 53.4853 27.8777 52.5084 27.8777C51.3479 27.8777 50.3099 27.6335 49.3939 27.1449C48.4779 26.6564 47.8061 25.9235 47.3176 25.0075C46.8289 24.0915 46.5847 23.0534 46.5847 21.893C46.5847 20.7327 46.8289 19.6946 47.3176 18.7786C47.8061 17.8625 48.4779 17.1908 49.3328 16.6412C50.1877 16.2137 51.1037 15.9694 52.2031 15.9694ZM50.1456 20.6106C50.0381 20.6106 49.9572 20.5122 49.9827 20.4077C50.0898 19.9684 50.2452 19.6085 50.4319 19.3282C50.7984 18.7785 51.409 18.4732 52.2031 18.4732C52.9357 18.4732 53.5464 18.7785 53.9129 19.3282C54.0955 19.602 54.2476 19.9668 54.3544 20.4074C54.3798 20.512 54.2989 20.6106 54.1913 20.6106H50.1456Z" fill="#F2F4F7"/>
<defs>
<radialGradient id="paint0_radial_2277_25937" cx="0" cy="0" r="1" gradientUnits="userSpaceOnUse" gradientTransform="translate(17.1063 6.70164) rotate(149.789) scale(16.0944 19.3041)">
<stop offset="0.116813" stop-color="white"/>
<stop offset="0.734375" stop-color="#8C8C8C"/>
<stop offset="1" stop-color="#9D9D9D"/>
</radialGradient>
<linearGradient id="paint1_linear_2277_25937" x1="11.9998" y1="15.9803" x2="11.9998" y2="35.9998" gradientUnits="userSpaceOnUse">
<stop stop-color="#929292"/>
<stop offset="0.46875" stop-color="#8E8E8E"/>
<stop offset="1" stop-color="#949494"/>
</linearGradient>
<linearGradient id="paint2_linear_2277_25937" x1="16.7509" y1="15.4917" x2="16.7509" y2="37.3331" gradientUnits="userSpaceOnUse">
<stop stop-color="white"/>
<stop offset="0.197917" stop-color="#ECECEC"/>
<stop offset="1" stop-color="#A7A7A7"/>
</linearGradient>
</defs>
</svg>
